/* XPM */
static char *bcae4d144cb84e9fe78e320460cf232dm6ng6JxHM0wLCAUc[] = {
/* columns rows colors chars-per-pixel */
"48 48 2 1 ",
"  c #A8E61D",
". c #FFC20E",
/* pixels */
"                                                ",
"                                                ",
"                                                ",
"                                                ",
"                                                ",
"                                                ",
"                                                ",
"                                                ",
"                                                ",
"                                                ",
"                                                ",
"                                                ",
"                                                ",
"            ........................            ",
"           ..........................           ",
"          ............................          ",
"          ............................          ",
"          ............................          ",
"          ............................          ",
"          ............................          ",
"          ............................          ",
"          ............................          ",
"          ............................          ",
"          ............................          ",
"          ............................          ",
"          ............................          ",
"          ............................          ",
"          ............................          ",
"          ............................          ",
"          ............................          ",
"          ............................          ",
"          ............................          ",
"          ............................          ",
"          ............................          ",
"           ..........................           ",
"            ........................            ",
"                                                ",
"                                                ",
"                                                ",
"                                                ",
"                                                ",
"                                                ",
"                                                ",
"                                                ",
"                                                ",
"                                                ",
"                                                ",
"                                                "
};
