/* XPM */
static char *pixil_frame_0__1_1689939308[] = {
/* columns rows colors chars-per-pixel */
"48 48 9 1 ",
"  c None",
". c black",
"X c #990030",
"o c #9C5A3C",
"O c #A8E61D",
"+ c #FFF200",
"@ c #E5AA7A",
"# c #F5E49C",
"$ c white",
/* pixels */
"OOOOOOOOOOOOOOOOOOOOOOOOOOOOOOOOOOOOOOOOOOOOOOOO",
"OOOOOOOOOOOOOOOOOOOOOOOOOOOOOOOOOOOOOOOOOOOOOOOO",
"OOOOOOOOOOOOOOOOOOOOOOOOOOOOOOOOOOOOOOOOOOOOOOOO",
"OOOOOOOOOOOOOOOOOOOOOOO..OOOOOOOOOOOOOOOOOOOOOOO",
"OOOOOOOOOOOOOOOOOOOOOO.XX.OOOOOOOOOOOOOOOOOOOOOO",
"OOOOOOOOOOOOOOOOOOOOO.XXXX.OOOOOOOOOOOOOOOOOOOOO",
"OOOOOOOOOOOOOOOOOOO..XXXXXX..OOOOOOOOOOOOOOOOOOO",
"OOOOOOOOOOOOOOOOOO.XXXXXXXXXX.OOOOOOOOOOOOOOOOOO",
"OOOOOOOOOOOOOOOOO.XXXX....XXXX.OOOOOOOOOOOOOOOOO",
"OOOOOOOOOOOOOOOO.XXXX.$$$$.XXXX.OOOOOOOOOOOOOOOO",
"OOOOOOOOOOOOOOO.XXXX.$$$$$$.XXXX.OOOOOOOOOOOOOOO",
"OOOOOOOOOOOOOO.XXXX.$$$$$$$$.XXXX.OOOOOOOOOOOOOO",
"OOOOOOOOOOOOO.XXXX.$$$$ $$$$$.XXXX.OOOOOOOOOOOOO",
"OOOOOooOOOOOO.XXX.$$$$$$$$$$$$.XXX.OOOOOOooOOOOO",
"OOOOo@@oOOOOO.XXX.$$$$$$$$$ $$.XXX.OOOOOo@@oOOOO",
"OOOo@++@oOOOO.XXX.$$$$$$$$$$$$.XXX.OOOOo@++@oOOO",
"OOOo@++@oOOO.XXXX.$$$$$ $$$$$$.XXXX.OOOo@++@oOOO",
"OOOOo@@oOOO.XXXXX.$$$$$$ $$$$$.XXXXX.OOOo@@oOOOO",
"OOOOO..OOO.XXXXXX.$$$ $$$$$$$$.XXXXXX.OOO..OOOOO",
"OOOO.XX.O.XXXXXXX.$$$......$$$.XXXXXXX.O.XX.OOOO",
"OOO.XXXX.XXXXXXXX.$..##..##..$.XXXXXXXX.XXXX.OOO",
"OO.XXXXXXXXXXXXXX..##oo..o###..XXXXXXXXXXXXXX.OO",
"OO.XXXXXXXXXXXXXX.#oooo..oooo#.XXXXXXXXXXXXXX.OO",
"OO.XXXXXXXXXXXXXX.oooo#..#oooo.XXXXXXXXXXXXXX.OO",
"OO.XXXXXXXXXXXXXX.o###o..o###o.XXXXXXXXXXXXXX.OO",
"OO.XXXXXXXXXXXXXX.#oooo..oooo#.XXXXXXXXXXXXXX.OO",
"OO.XXXXXXXXXXXXXX.oooo#..#oooo.XXXXXXXXXXXXXX.OO",
"OO.XXXXXXXXXXXXXX.o###o..o###o.XXXXXXXXXXXXXX.OO",
"OO.XXXXXXXXXXXXXX.#oooo..oooo#.XXXXXXXXXXXXXX.OO",
"OO.XXXXXXXXXXXXXX.oooo#..#oooo.XXXXXXXXXXXXXX.OO",
"OO.XXXXXXXXXXXXXX.o###o..o###o.XXXXXXXXXXXXXX.OO",
"OO.XXXXXXXXXXXXXX.#oooo..oooo#.XXXXXXXXXXXXXX.OO",
"OO.XXXXXXXXXXXXXX.oooo#..#oooo.XXXXXXXXXXXXXX.OO",
"OO.XXXXXXXXXXXXXX.o###o..o###o.XXXXXXXXXXXXXX.OO",
"OO.XXXXXXXXXXXXXX.#oooo..oooo#.XXXXXXXXXXXXXX.OO",
"OO.XXXXXXXXXXXXXX.oooo#..#oooo.XXXXXXXXXXXXXX.OO",
"OO.XXXXXXXXXXXXXX.o####..####o.XXXXXXXXXXXXXX.OO",
"OO.XXXXXXXXXXXXXX.###......###.XXXXXXXXXXXXXX.OO",
"OO.XXXXXXXXXXXXXX....$$$$$$....XXXXXXXXXXXXXX.OO",
"OO.XXXXXXXXXXXXXX.$$$$$$$$$$$$.XXXXXXXXXXXXXX.OO",
"OO.XXXXXXXXXXXXXX.$$$$$$$$$$$$.XXXXXXXXXXXXXX.OO",
"OO.XXXXXXXXXXXXXX.$$$$$$$$$$$$.XXXXXXXXXXXXXX.OO",
"OO.XXXXXXXXXXXXXX.$$$$$$$$$$$$.XXXXXXXXXXXXXX.OO",
"OO................$$$$$$$$$$$$................OO",
"OOOOOOOOOOOOOOOOOOOOOOOOOOOOOOOOOOOOOOOOOOOOOOOO",
"OOOOOOOOOOOOOOOOOOOOOOOOOOOOOOOOOOOOOOOOOOOOOOOO",
"OOOOOOOOOOOOOOOOOOOOOOOOOOOOOOOOOOOOOOOOOOOOOOOO",
"OOOOOOOOOOOOOOOOOOOOOOOOOOOOOOOOOOOOOOOOOOOOOOOO"
};
