/* XPM */
static char *_bbb1f07543842a3bf78bc3d49a282ffZCttOeJnYbKYAtIj[] = {
/* columns rows colors chars-per-pixel */
"48 48 4 1 ",
"  c black",
". c #A8E61D",
"X c gray74",
"o c #E6E6E6",
/* pixels */
"................................................",
"................................................",
"................................................",
"................................................",
"....................     .......................",
"..................  XXXXX ......................",
"................. XXXXXXXX .....................",
"................. XXXXXXXXX ....................",
"................. XXXXXXXXXX ...................",
"................. XXXXXXXXXXX ..................",
"................. XXXXXXXXXXX ..................",
"................. XXXXo XX oX ..................",
"................. XXXXo XX oX ..................",
"................. XXXXXXXXXXX ..................",
".................. XXXXXXXXXX ..................",
"................... XXXXX  XX ..................",
".................... XXXXXXX ...................",
".....................       ....................",
".................... XXXXXX ....................",
"..................  XXXXXXXX  ..................",
"................. XXXXXXXXXXXX .................",
"................ XXXXXXXXXXX XX ................",
"................ XXXXXXXXXXX XX ................",
"................ XX XXXXXXXX XX ................",
"................ XX XXXXXXXX XX ................",
"................ XX XXXXXXXX XX ................",
"................ XX XXXXXXXX XX ................",
"................ XX XXXXXXXX XX ................",
"................ XX XXXXXXXX XX ................",
"................ XX XXXXXXXX XX ................",
"................ XX XXXXXXXX XX ................",
"................. X XXXXXXXX X .................",
"..................  XXXX XXX  ..................",
"................... XXXX XXX ...................",
"................... XXXX XXX ...................",
"................... XXXX XXX ...................",
"................... XXXX XXX ...................",
"................... XXX XXXX ...................",
"................... XXXX XXXX ..................",
"................... XXXXX XXXX .................",
"................... XXXXXX XXXX ................",
"....................      .    .................",
"................................................",
"................................................",
"................................................",
"................................................",
"................................................",
"................................................"
};
