/* XPM */
static char *_71e125eab844eeec55e039f79f5d27eDv9vtP0wpvLZQmEU[] = {
/* columns rows colors chars-per-pixel */
"48 48 2 1 ",
"  c #990030",
". c #9C5A3C",
/* pixels */
".......................  .......................",
".......................  .......................",
".......................  .......................",
".......................  .......................",
".......................  .......................",
".......................  .......................",
".......................  .......................",
".......................  .......................",
".......................  .......................",
".......................  .......................",
".......................  .......................",
".......................  .......................",
".......................  .......................",
".......................  .......................",
".......................  .......................",
".......................  .......................",
".......................  .......................",
".......................  .......................",
".......................  .......................",
".......................  .......................",
".......................  .......................",
".......................  .......................",
".......................  .......................",
"                                                ",
"                                                ",
".......................  .......................",
".......................  .......................",
".......................  .......................",
".......................  .......................",
".......................  .......................",
".......................  .......................",
".......................  .......................",
".......................  .......................",
".......................  .......................",
".......................  .......................",
".......................  .......................",
".......................  .......................",
".......................  .......................",
".......................  .......................",
".......................  .......................",
".......................  .......................",
".......................  .......................",
".......................  .......................",
".......................  .......................",
".......................  .......................",
".......................  .......................",
".......................  .......................",
".......................  ......................."
};
